<?xml version="1.0" standalone="no"?>
<!DOCTYPE svg PUBLIC "-//W3C//DTD SVG 20010904//EN"
 "http://www.w3.org/TR/2001/REC-SVG-20010904/DTD/svg10.dtd">
<svg version="1.0" xmlns="http://www.w3.org/2000/svg"
 width="180.000000pt" height="180.000000pt" viewBox="0 0 180.000000 180.000000"
 preserveAspectRatio="xMidYMid meet">

<g transform="translate(0.000000,180.000000) scale(0.100000,-0.100000)"
fill="#000000" stroke="none">
<path d="M855 1659 c-244 -41 -406 -244 -368 -465 16 -91 48 -150 120 -222 54
-53 86 -74 211 -134 81 -39 168 -86 195 -105 153 -111 136 -330 -31 -401 -119
-51 -277 -33 -467 54 -6 2 -21 -36 -34 -87 -27 -107 -27 -108 64 -140 246 -87
527 -52 673 85 123 115 163 304 101 472 -17 45 -38 75 -93 130 -63 63 -89 80
-226 148 -205 102 -234 124 -272 205 -43 93 -2 198 95 246 96 46 229 43 359
-9 l56 -23 26 91 c30 105 30 106 -60 132 -115 33 -240 42 -349 23z"/>
</g>
</svg>
