<svg id="Layer_1" data-name="Layer 1" xmlns="http://www.w3.org/2000/svg" xmlns:xlink="http://www.w3.org/1999/xlink" width="49.7743" height="49.7585" viewBox="0 0 49.7743 49.7585"><defs><style>.cls-1{fill:none;}.cls-2{clip-path:url(#clip-path);}.cls-3{opacity:0.2;}.cls-4{clip-path:url(#clip-path-2);}.cls-5{fill:#fff;}</style><clipPath id="clip-path"><rect class="cls-1" x="-1192.7046" y="-1862.8877" width="1920" height="1316"/></clipPath><clipPath id="clip-path-2"><rect class="cls-1" x="983.5868" y="-1818.3738" width="1125.3171" height="1138.0403"/></clipPath><image id="image" width="2048" height="2048"/></defs><g class="cls-2"><use class="cls-3" transform="translate(-2943.9697 -1564.9492) rotate(-26.2673) scale(1.536)" xlink:href="#image"/></g><g class="cls-4"><use class="cls-3" transform="matrix(1.0474, -0.521, 0.5169, 1.0557, -434.0961, -1601.3216)" xlink:href="#image"/></g><path class="cls-5" d="M41.7445,6.5767A24.8394,24.8394,0,0,0,9.8637,5.0743c-.6143.4709-1.2112.9663-1.7841,1.5024A24.8456,24.8456,0,0,0,39.9662,44.6273c.6146-.4705,1.2109-.9663,1.7838-1.5024A24.8169,24.8169,0,0,0,43.2285,8.0584q-.7073-.7707-1.4785-1.4791Zm-1.026,33.6569A24.7824,24.7824,0,0,0,36.816,37.58a40.6775,40.6775,0,0,0,1.87-11.3475h8.2506A22.0644,22.0644,0,0,1,40.7185,40.2336ZM38.469,42.276c-.2127.1667-.4318.32-.6506.4792-.3144.2275-.6311.4511-.9549.6609-.2333.1506-.4712.2918-.7087.4337-.3254.1935-.6531.38-.9885.5526-.246.13-.4958.254-.7472.3745-.338.1629-.6822.3148-1.0286.4592-.2353.0966-.4712.1936-.7087.2763a21.92,21.92,0,0,0,3.1595-5.3341,21.8132,21.8132,0,0,1,2.8374,1.9183C38.6073,42.1574,38.541,42.2207,38.469,42.276Zm-23.06,2.5016q-.3738-.1779-.7388-.3694c-.3383-.1784-.6715-.3674-1-.5633-.233-.1383-.4663-.276-.69-.4253-.3287-.2133-.6489-.4408-.9663-.6715-.2155-.1561-.4327-.308-.6424-.4721-.0721-.055-.1377-.1186-.21-.1749a21.7541,21.7541,0,0,1,2.8267-1.9224,21.917,21.917,0,0,0,3.1592,5.3382c-.2355-.0885-.4711-.1832-.7044-.2763q-.5236-.219-1.0384-.463ZM9.1108,9.468a24.75,24.75,0,0,0,3.9028,2.6538,40.6827,40.6827,0,0,0-1.87,11.3485H2.8931A22.0635,22.0635,0,0,1,9.1108,9.468Zm2.25-2.0417c.212-.1677.4317-.32.65-.48.3148-.2275.6308-.4514.9566-.6615.232-.15.47-.2912.7061-.4324.3254-.1926.6544-.3807.99-.5519.2459-.13.4957-.254.7472-.3739.338-.1629.6822-.3154,1.0283-.46.2352-.0967.4708-.193.7086-.2763a21.935,21.935,0,0,0-3.1592,5.3334A21.8785,21.8785,0,0,1,11.15,7.6056C11.2223,7.5446,11.2885,7.4812,11.3606,7.4263ZM34.42,4.9237q.3732.1779.7387.37c.3384.1777.6716.3671,1,.5632.233.1377.4663.276.69.4253.3287.2127.6489.44.9663.6706.2155.1564.4327.308.6424.4724.0721.0556.1377.119.21.1755a21.8921,21.8921,0,0,1-2.8267,1.9225A21.9,21.9,0,0,0,32.6818,4.185c.2359.0885.4708.1835.7042.2763.35.1464.6964.3,1.0389.4624ZM23.5341,12.3655A21.98,21.98,0,0,1,16.4914,10.74c1.7577-4.1646,4.2544-7.0491,7.0427-7.7814Zm0,2.7614V23.47h-9.63A38.3568,38.3568,0,0,1,15.5611,13.344a24.7289,24.7289,0,0,0,7.973,1.7764Zm0,11.1051v8.35a24.7223,24.7223,0,0,0-7.98,1.7761,38.3784,38.3784,0,0,1-1.65-10.1259Zm0,11.1048V46.743c-2.7837-.7323-5.28-3.6165-7.0427-7.781A21.9793,21.9793,0,0,1,23.5341,37.3368Zm2.7614,0a21.9805,21.9805,0,0,1,7.0426,1.6252c-1.758,4.1645-4.2547,7.0423-7.0426,7.781Zm0-2.7614V26.232h9.63a38.3908,38.3908,0,0,1-1.65,10.1259,24.7252,24.7252,0,0,0-7.98-1.7761Zm0-11.1051V15.12a24.7387,24.7387,0,0,0,7.98-1.7764,38.3844,38.3844,0,0,1,1.65,10.1253h-9.63Zm0-11.1048V2.9592c2.7837.7314,5.28,3.6159,7.0426,7.7811A21.9964,21.9964,0,0,1,26.2955,12.3655ZM11.1438,26.232a40.6775,40.6775,0,0,0,1.87,11.3475,24.72,24.72,0,0,0-3.9028,2.6541A22.0557,22.0557,0,0,1,2.8931,26.232ZM38.6858,23.47a40.6827,40.6827,0,0,0-1.87-11.3485A24.6872,24.6872,0,0,0,40.7185,9.468a22.0565,22.0565,0,0,1,6.2179,14.0013H38.6858Z"/></svg>