<svg id="Layer_1" data-name="Layer 1" xmlns="http://www.w3.org/2000/svg" xmlns:xlink="http://www.w3.org/1999/xlink" width="288.7567" height="362.5329" viewBox="0 0 288.7567 362.5329"><defs><style>.cls-1{fill:none;}.cls-2{clip-path:url(#clip-path);}.cls-3{opacity:0.2;}.cls-4{fill:#ff552f;}</style><clipPath id="clip-path"><rect class="cls-1" x="-27.5764" y="-2079.7649" width="1920" height="1316"/></clipPath></defs><g class="cls-2"><image class="cls-3" width="2048" height="2048" transform="translate(-1778.8415 -1781.8265) rotate(-26.2673) scale(1.536)"/></g><path class="cls-4" d="M213.7486,362.5329a7.35,7.35,0,0,1-3.6767-.9929l-67.6154-39.0377-1.8973-1.8875H31.38C14.7558,320.6148,0,308.4837,0,292.0961V58.2044c0-16.3877,14.7558-28.499,31.38-28.499H86.7853l.2458-2.31a31.6816,31.6816,0,0,1,9.4768-17.2333A38.2816,38.2816,0,0,1,121.8809.0167c18.7176-.5309,35.2724,11.63,38.0841,28.46l.1277,1.2289H214.82c16.6334,0,31.3794,12.1113,31.3794,28.499V203.8165c.1868,3.8536-.3637,6.1736-1.2682,7.6778l-.9535,1.0224.0394.6586a7.3625,7.3625,0,0,1-10.9908,5.4658l-19.2681-11.1185-60.2423,34.7811v69.552l60.2423,34.7809,60.2523-34.7809v-69.552l-20.2414-11.6888a7.37,7.37,0,1,1,7.3632-12.77L285.06,231.657a7.3664,7.3664,0,0,1,3.6963,6.38v78.0752a7.37,7.37,0,0,1-3.6963,6.39L217.4351,361.54A7.3853,7.3853,0,0,1,213.7486,362.5329Zm-74.9786-53.99V293.7475H50.6182c-13.91,0-26.0218-10.47-26.0218-24.4292V78.0624c0-13.9792,12.1114-24.4685,26.0218-24.4685H73.799V41.7774H31.38c-11.3544,0-19.3272,8.0317-19.3272,16.427V292.0961c0,8.415,7.9728,16.4466,19.3272,16.4466Zm113.4459-6.5373a6.8093,6.8093,0,0,1-6.8125-6.8127V263.9016h-5.5446a6.8078,6.8078,0,1,1,0-13.6155h24.6848a6.8078,6.8078,0,0,1,0,13.6155h-5.5247v31.2911A6.8073,6.8073,0,0,1,252.2159,302.0054Zm-87.7486-.0295a6.8094,6.8094,0,0,1-6.8126-6.8127V257.04a6.8172,6.8172,0,0,1,12.6029-3.5686l10.9317,17.7148V257.04a6.8078,6.8078,0,0,1,13.6155,0v38.1233a6.8176,6.8176,0,0,1-12.6029,3.5784L171.27,281.0365v14.1267A6.8072,6.8072,0,0,1,164.4673,301.9759Zm41.23,0a6.8092,6.8092,0,0,1-6.8126-6.8127V257.04a6.8071,6.8071,0,0,1,6.8126-6.8029c.2262,0,.462.02.6882.0393l.1868.03.2851-.02h19.0518a6.8078,6.8078,0,0,1,0,13.6155H212.5v5.1415h8.3659a6.8078,6.8078,0,0,1,0,13.6155H212.5v12.5046A6.8073,6.8073,0,0,1,205.6972,301.9759ZM138.77,281.6951v-43.658a7.3259,7.3259,0,0,1,.983-3.6767l1.799-1.8089H68.0873a6.0263,6.0263,0,1,1,0-12.0524h93.6865l16.1616-9.3194.0491-.0491.6882-.3834,30.8389-17.8034V78.0624c0-6.3408-5.751-12.3767-13.9793-12.3767H173.2264v1.3172c0,5.8984-4.3353,11.04-10.1943,11.04H84.013c-5.8983,0-10.214-5.1611-10.214-11.04V65.6857H50.6182c-8.1988,0-13.9694,6.0359-13.9694,12.3767V269.3183c0,6.37,5.7706,12.3768,13.9694,12.3768Zm95.3477-79.4417V58.2044c0-8.3953-7.9727-16.427-19.2975-16.427H173.2264V53.5939h22.3059c13.8908,0,26.0513,10.4893,26.0513,24.4685V195.0181ZM68.0873,175.052a6.0459,6.0459,0,1,1,0-12.0917H178.4466a6.0459,6.0459,0,0,1,0,12.0917Zm0-53.1546a6.036,6.036,0,1,1,0-12.072H178.4466a6.036,6.036,0,0,1,0,12.072ZM161.174,65.9608v-23.21H85.871v23.21Zm-13.33-36.2554-.8454-3.0083c-3.46-8.5232-13.1732-14.9525-24.8029-14.628A25.9226,25.9226,0,0,0,104.8148,18.96a19.2738,19.2738,0,0,0-5.8984,10.5975l-.02.1475Z"/></svg>