<svg id="Layer_1" data-name="Layer 1" xmlns="http://www.w3.org/2000/svg" xmlns:xlink="http://www.w3.org/1999/xlink" width="336.1815" height="362.7031" viewBox="0 0 336.1815 362.7031"><defs><style>.cls-1{fill:none;}.cls-2{clip-path:url(#clip-path);}.cls-3{opacity:0.2;}.cls-4{fill:#ff552f;}</style><clipPath id="clip-path"><rect class="cls-1" x="-9.1342" y="-2680.8335" width="1920" height="1316"/></clipPath></defs><g class="cls-2"><image class="cls-3" width="2048" height="2048" transform="translate(-1760.3993 -2382.8951) rotate(-26.2673) scale(1.536)"/></g><path class="cls-4" d="M261.1734,362.7031a7.35,7.35,0,0,1-3.6767-.9928l-67.6153-39.0378a7.36,7.36,0,0,1-3.6865-6.39V250.6432l-.03.02c-7.0781,6.4588-11.5412,16.27-13.9891,33.68l-.0786.403c-6.6259,32.6673-28.0961,54.8061-61.2746,56.34-1.3959.0688-2.782.0983-4.2075.0983a108.1912,108.1912,0,0,1-32.7362-5.82C14.8657,313.3531-4.7367,255.6077.9357,177.3063,8.0236,82.6073,103.1846-4.8267,227.1593,26.2383a124.1593,124.1593,0,0,1,16.7121,5.5346l9.929,4.8859L264.28,27.86A381.1894,381.1894,0,0,1,303.7207.8751,6.0967,6.0967,0,0,1,312.5879,8.12a343.1554,343.1554,0,0,1-18.02,42.4194l-6.1541,11.1184,7.6777,8.0809c39.5293,45.398,48.8193,111.6962-4.0108,142.9577l-.6587.3637.02.2851a7.3625,7.3625,0,0,1-10.9907,5.4659l-19.2682-11.1185-60.2423,34.781V312.026l60.2423,34.7808,60.2523-34.7808V242.4739l-20.2414-11.6887a7.37,7.37,0,1,1,7.3632-12.77l23.9279,13.8121a7.3663,7.3663,0,0,1,3.6963,6.38v78.0752a7.37,7.37,0,0,1-3.6963,6.39L264.86,361.71A7.3852,7.3852,0,0,1,261.1734,362.7031ZM106.0551,328.05c1.19.02,2.3593.01,3.5292-.03,27.634-1.0026,44.1791-19.2484,49.6056-45.9092l1.8384-10.1748c4.5515-20.084,13.1436-31.1535,27.1819-38.5165l.1375-.0689,1.5337-1.5238L257.4967,192.79a7.3536,7.3536,0,0,1,7.3632,0l17.2233,9.9486,6.8619-3.7356c41.24-28.0175,30.6619-84.16-4.4534-122.6672l-2.9-2.8607-9.9093,15.4144c-16.8891,24.4686-37.0616,47.0005-60.6357,69.1589l-7.9333,7.2944-6.2326,12.0622a101.1856,101.1856,0,0,1-27.5259,29.492l-2.556,1.7008.3245,1.5827c4.08,23.7509-3.844,39.7258-19.3173,47.8459-7.7565,4.1093-17.0367,6.0164-26.8182,6.3212a103.2759,103.2759,0,0,1-15.0016-.6686l-11.9149-2.1038-.2653,2.6937a26.0434,26.0434,0,1,1-1.5238-15.3653l.0492.0884.1966-.0392c4.5811.2358,8.8574-1.0225,11.384-3.0182,2.084-1.6514,3.2047-3.8929,2.1332-7.599-5.751-18.2065-4.65-31.5271,3.6767-40.3157,5.8394-6.1638,14.333-8.9951,22.9644-10.4991l5.9771-.7865,1.5238-4.3746a84.9768,84.9768,0,0,1,23.279-33.3949l10.43-7.8448,4.1584-8.3463c14.6575-28.332,31.881-52.83,52.545-74.4674l12.7111-12.3571-8.9557-3.7161a108.6776,108.6776,0,0,0-10.4009-3.2047c-115.7071-29-203.387,52.3581-209.8752,139.2516C8.5445,254.7327,27.97,304.1712,78.254,322.9282A94.1868,94.1868,0,0,0,106.0551,328.05Zm193.5858-25.8743a6.8094,6.8094,0,0,1-6.8127-6.8127V264.0719h-5.5445a6.8078,6.8078,0,1,1,0-13.6155h24.6848a6.8078,6.8078,0,0,1,0,13.6155h-5.5248V295.363A6.8073,6.8073,0,0,1,299.6409,302.1757Zm-87.7487-.03a6.8093,6.8093,0,0,1-6.8126-6.8127V257.21a6.8172,6.8172,0,0,1,12.6029-3.5686l10.9318,17.7149V257.21a6.8078,6.8078,0,0,1,13.6155,0v38.1233a6.8177,6.8177,0,0,1-12.6031,3.5784l-10.9316-17.705v14.1266A6.8072,6.8072,0,0,1,211.8922,302.1461Zm41.23,0a6.8093,6.8093,0,0,1-6.8126-6.8127V257.21a6.8072,6.8072,0,0,1,6.8126-6.8029c.2261,0,.4621.02.6881.0394l.1868.03.2851-.02h19.0518a6.8078,6.8078,0,0,1,0,13.6155H259.925v5.1415h8.3659a6.8078,6.8078,0,0,1,0,13.6155H259.925v12.5045A6.8072,6.8072,0,0,1,253.1221,302.1461ZM68.3151,271.907A12.8685,12.8685,0,1,0,55.486,259.0288,12.8846,12.8846,0,0,0,68.3151,271.907Zm49.95-19.7892,18.7666-2.6839,2.3594-.865,2.7232-1.2977c9.9192-5.21,16.4172-15.3653,13.0256-35.0266l-.4621-2.2709-7.1862-6.1442-1.7793.9929-8.72,8.0612c-3.2245,4.5417-5.83,10.9022-7.0389,20.1725a6.1212,6.1212,0,0,1-5.6035,5.2987h-1.18a6.1891,6.1891,0,0,1-5.3086-6.8619c1.4256-10.8137,4.5615-19.18,9.2212-25.6972l4.7483-5.3775-5.4856,1.2486a19.7654,19.7654,0,0,0-7.7858,4.7285c-3.7259,3.9519-6.1933,11.5805-.8456,28.3909,1.9072,6.6063.7079,12.3769-2.4772,16.7613l-.5309.57Zm-59.22-36.2065a29.7673,29.7673,0,1,1,29.7378-29.777A29.7525,29.7525,0,0,1,59.0448,215.9113Zm0-13.1927A16.57,16.57,0,1,0,42.49,186.1343,16.5808,16.5808,0,0,0,59.0448,202.7186Zm100.9611-4.2272,2.2611-1.5139,8.012-6.4587,4.6106-4.65-15.7685-13.468-4.296,7.0584-4.5614,10.7253Zm22.7285-21.9224,1.0126-1.278,5.25-8.651,1.0518-2.1725L177.013,153.8012l-1.7793,1.2582-7.7663,6.8717-.757.8945Zm91.2877-7.6286a23.5691,23.5691,0,1,1,23.5444-23.574A23.5537,23.5537,0,0,1,274.0221,168.94Zm0-13.1731a10.3911,10.3911,0,1,0-10.3714-10.4009A10.3777,10.3777,0,0,0,274.0221,155.7673ZM196.95,154.391l13.7138-12.8486c29.1677-28.4894,52.4271-57.7063,70.23-91.14l13.2616-28.9415L281.3459,30.21c-40.0992,29.207-69.7683,63.9781-92.8408,108.8453l-2.969,5.9968ZM95.5068,142.3878A29.7575,29.7575,0,1,1,125.2249,112.63,29.7526,29.7526,0,0,1,95.5068,142.3878Zm0-13.1831A16.5745,16.5745,0,1,0,78.9421,112.63,16.5807,16.5807,0,0,0,95.5068,129.2047Zm69.7979-23.2593a29.7575,29.7575,0,1,1,29.7278-29.7673A29.744,29.744,0,0,1,165.3047,105.9454Zm0-13.183A16.5745,16.5745,0,1,0,148.75,76.1781,16.5722,16.5722,0,0,0,165.3047,92.7624Z"/></svg>