<svg id="Layer_1" data-name="Layer 1" xmlns="http://www.w3.org/2000/svg" xmlns:xlink="http://www.w3.org/1999/xlink" width="49.75" height="49.75" viewBox="0 0 49.75 49.75"><defs><style>.cls-1{fill:none;}.cls-2{clip-path:url(#clip-path);}.cls-3{opacity:0.2;}.cls-4{clip-path:url(#clip-path-2);}.cls-5{fill:#fff;}</style><clipPath id="clip-path"><rect class="cls-1" x="-765.1453" y="-1863.1377" width="1920" height="1316"/></clipPath><clipPath id="clip-path-2"><rect class="cls-1" x="1411.146" y="-1818.6238" width="1125.3171" height="1138.0403"/></clipPath><image id="image" width="2048" height="2048"/></defs><g class="cls-2"><use class="cls-3" transform="translate(-2516.4104 -1565.1993) rotate(-26.2673) scale(1.536)" xlink:href="#image"/></g><g class="cls-4"><use class="cls-3" transform="matrix(1.0474, -0.521, 0.5169, 1.0557, -6.5369, -1601.5716)" xlink:href="#image"/></g><path class="cls-5" d="M34.93,0H14.8215A14.8381,14.8381,0,0,0,0,14.8211V34.93A14.8378,14.8378,0,0,0,14.8215,49.75H34.93A14.8369,14.8369,0,0,0,49.75,34.93V14.8211A14.8372,14.8372,0,0,0,34.93,0Zm9.8154,34.93a9.8153,9.8153,0,0,1-9.8154,9.816H14.8215A9.8154,9.8154,0,0,1,5.0058,34.93V14.8211a9.8157,9.8157,0,0,1,9.8157-9.8163H34.93a9.8156,9.8156,0,0,1,9.8154,9.8163V34.93Z"/><path class="cls-5" d="M24.8753,12.0077A12.8673,12.8673,0,1,0,37.7436,24.875,12.8828,12.8828,0,0,0,24.8753,12.0077Zm0,20.73a7.8624,7.8624,0,1,1,7.8622-7.8625A7.8617,7.8617,0,0,1,24.8753,32.7375Z"/><path class="cls-5" d="M37.7672,9.0214a3.0831,3.0831,0,1,1-3.0833,3.0829A3.0834,3.0834,0,0,1,37.7672,9.0214Z"/></svg>