<svg id="Layer_1" data-name="Layer 1" xmlns="http://www.w3.org/2000/svg" width="314.1247" height="333.4415" viewBox="0 0 314.1247 333.4415"><defs><style>.cls-1{fill:#ff552f;}</style></defs><path class="cls-1" d="M158.1535,333.4411a7.3217,7.3217,0,0,1-5.6724-2.5755L47.44,208.3065c-5.279-6.1639,1.9465-15.1392,9.0935-11.2955l100.2041,54.01L253.59,199.0263c7.0683-3.7946,14.2742,4.9743,9.1819,11.1676l-98.995,120.5438A7.3577,7.3577,0,0,1,158.1535,333.4411Zm-.1966-18.8453,69.7585-84.9469L160.218,265.8848a7.38,7.38,0,0,1-6.98,0L84.4234,228.7935Zm.403-83.7279a7.392,7.392,0,0,1-3.3915-.8356L45.8478,173.26a7.3907,7.3907,0,0,1-3.3916-9.4277l.0885-.1573.0294-.1474.5309-.8456.1672-.285.1475-.2065.6684-1.0518.1868-.1377L152.3928,11.2505a7.3789,7.3789,0,0,1,11.9442-.01L274.1949,162.3873a7.3715,7.3715,0,0,1-2.5757,10.8827L161.7613,230.0421A7.421,7.421,0,0,1,158.36,230.8679Zm6.6553-19.101,86.1759-44.5428-86.1857-36.2753Zm-14.746-.7963v-80.936l-84.416,37.0223,84.4062,43.9137Zm96.1049-61.776L165.0152,37.2527l-.01,77.7016Zm-174.8486-.7275,78.7437-34.5351V39.4055ZM28.477,102.0663a6.3748,6.3748,0,0,1-.7472-.0688l-21.3424-2.9a7.3756,7.3756,0,0,1,1.976-14.6183l21.3425,2.9a7.3789,7.3789,0,0,1-1.2289,14.6871Zm257.1607,0a7.3788,7.3788,0,0,1-1.2189-14.6871l21.3424-2.9a7.3756,7.3756,0,1,1,1.9759,14.6183l-21.3424,2.9A6.7362,6.7362,0,0,1,285.6377,102.0663ZM49.5245,63.1368a7.261,7.261,0,0,1-3.48-1.0125L27.75,51.4187a7.3732,7.3732,0,0,1,7.4418-12.7308L53.4862,49.3936a7.3793,7.3793,0,0,1-3.9617,13.7432Zm215.0657,0a7.3791,7.3791,0,0,1-3.9518-13.7432l18.2948-10.7057a7.3732,7.3732,0,0,1,7.4418,12.7308L268.08,62.1243A7.3284,7.3284,0,0,1,264.59,63.1368ZM83.3912,30.46a7.3457,7.3457,0,0,1-5.81-2.4183L63.3562,12.3219A7.3776,7.3776,0,1,1,74.2978,2.4225l14.225,15.7193A7.3756,7.3756,0,0,1,83.3912,30.46Zm147.3323,0a7.3113,7.3113,0,0,1-4.6006-1.8973,7.39,7.39,0,0,1-.5211-10.42L239.8267,2.4225a7.3776,7.3776,0,1,1,10.9416,9.8994L236.5434,28.0413A7.3793,7.3793,0,0,1,230.7235,30.46Z"/></svg>