<svg id="Layer_1" data-name="Layer 1" xmlns="http://www.w3.org/2000/svg" xmlns:xlink="http://www.w3.org/1999/xlink" width="49.75" height="49.75" viewBox="0 0 49.75 49.75"><defs><style>.cls-1{fill:none;}.cls-2{clip-path:url(#clip-path);}.cls-3{opacity:0.2;}.cls-4{clip-path:url(#clip-path-2);}.cls-5{fill:#fff;}</style><clipPath id="clip-path"><rect class="cls-1" x="-978.925" y="-1863.1377" width="1920" height="1316"/></clipPath><clipPath id="clip-path-2"><rect class="cls-1" x="1197.3664" y="-1818.6238" width="1125.3171" height="1138.0403"/></clipPath><image id="image" width="2048" height="2048"/></defs><g class="cls-2"><use class="cls-3" transform="translate(-2730.19 -1565.1993) rotate(-26.2673) scale(1.536)" xlink:href="#image"/></g><g class="cls-4"><use class="cls-3" transform="matrix(1.0474, -0.521, 0.5169, 1.0557, -220.3165, -1601.5716)" xlink:href="#image"/></g><path class="cls-5" d="M43.045,0H6.7043A6.7043,6.7043,0,0,0,0,6.704V43.046A6.7041,6.7041,0,0,0,6.7043,49.75H24.6271l.03-17.7777H20.0392A1.09,1.09,0,0,1,18.95,30.8864l-.0223-5.7309a1.09,1.09,0,0,1,1.0894-1.0942h4.61V18.5249c0-6.4264,3.9255-9.9253,9.657-9.9253h4.7037a1.09,1.09,0,0,1,1.09,1.09v4.8319a1.0892,1.0892,0,0,1-1.0894,1.09l-2.8858.0013c-3.1185,0-3.7219,1.4816-3.7219,3.6555v4.7932h6.85A1.0907,1.0907,0,0,1,40.3137,25.28l-.6793,5.73a1.09,1.09,0,0,1-1.0826.9624h-6.14L32.3807,49.75h10.665A6.7039,6.7039,0,0,0,49.75,43.046V6.704A6.7042,6.7042,0,0,0,43.045,0Z"/></svg>