<svg id="Layer_1" data-name="Layer 1" xmlns="http://www.w3.org/2000/svg" xmlns:xlink="http://www.w3.org/1999/xlink" width="325.8255" height="306.7882" viewBox="0 0 325.8255 306.7882"><defs><style>.cls-1{fill:none;}.cls-2{clip-path:url(#clip-path);}.cls-3{opacity:0.2;}.cls-4{fill:#ff552f;}</style><clipPath id="clip-path"><rect class="cls-1" x="-11.4643" y="-1534.441" width="1920" height="1316"/></clipPath></defs><g class="cls-2"><image class="cls-3" width="2048" height="2048" transform="translate(-1762.7294 -1236.5026) rotate(-26.2673) scale(1.536)"/></g><path class="cls-4" d="M40.9014,306.7882A40.9109,40.9109,0,0,1,0,265.8777V92.767A40.9148,40.9148,0,0,1,40.9014,51.8656H58.4448l.565-.7108a6.3843,6.3843,0,0,1,2.3423-1.3214L215.9441.32a6.8094,6.8094,0,0,1,8.4848,4.2377l16.4133,47.3081h11.164a40.9363,40.9363,0,0,1,40.92,40.9014V137.66h15.8575a17.0435,17.0435,0,0,1,17.0422,17.0331v52.029a17.0475,17.0475,0,0,1-17.0422,17.0513H292.9258v42.1043a40.9324,40.9324,0,0,1-40.92,40.9105Zm211.1048-13.561a27.3758,27.3758,0,0,0,27.3679-27.3495V223.7734H264.5464v12.1482a6.78,6.78,0,1,1-13.5608,0V223.7734h-47.81a17.0318,17.0318,0,0,1-17.0239-17.0513v-52.029A17.0278,17.0278,0,0,1,203.1761,137.66h47.81V115.2773a6.78,6.78,0,1,1,13.5608,0V137.66h14.8277V92.767a27.3876,27.3876,0,0,0-27.3679-27.35H40.9014a27.3777,27.3777,0,0,0-27.35,27.35V265.8777a27.3659,27.3659,0,0,0,27.35,27.3495ZM71.8963,282.282a6.776,6.776,0,1,1,0-13.5519H99a6.776,6.776,0,1,1,0,13.5519Zm54.2253,0a6.776,6.776,0,0,1,0-13.5519h27.1035a6.776,6.776,0,1,1,0,13.5519Zm54.2344,0a6.776,6.776,0,1,1,0-13.5519h27.1034a6.776,6.776,0,1,1,0,13.5519Zm54.2161,0a6.776,6.776,0,1,1,0-13.5519h3.2808a13.1724,13.1724,0,0,0,12.23-8.33,6.7729,6.7729,0,1,1,12.6131,4.9395,26.6926,26.6926,0,0,1-24.8435,16.942ZM45.1027,280.8875a6.5826,6.5826,0,0,1-2.652-.4921,26.6849,26.6849,0,0,1-16.8144-24.7978v-3.3629a6.78,6.78,0,1,1,13.5609,0v3.3629a13.1265,13.1265,0,0,0,8.2842,12.203,6.7884,6.7884,0,0,1-2.3787,13.0869Zm67.3486-21.3983a6.7876,6.7876,0,0,1-5.2584-2.3879l-43.927-51.2542c-4.894-5.7051,1.8136-14.0256,8.43-10.4532l40.1266,21.6172,38.7323-20.7879c6.5526-3.5177,13.2329,4.6114,8.512,10.3529L117.6643,256.992A6.8123,6.8123,0,0,1,112.4513,259.4892Zm-.1822-17.4616,14.3082-17.4249-11.5286,6.1881a6.8159,6.8159,0,0,1-6.4706-.0091l-11.0546-5.9512ZM32.4168,231.8844a6.791,6.791,0,0,1-6.7805-6.78V198a6.78,6.78,0,0,1,13.5609,0v27.1035A6.791,6.791,0,0,1,32.4168,231.8844Zm276.3665-21.681a3.4752,3.4752,0,0,0,3.4813-3.4813v-52.029a3.4928,3.4928,0,0,0-3.4813-3.4814H203.1761a3.4969,3.4969,0,0,0-3.4722,3.4814v52.029a3.4791,3.4791,0,0,0,3.4722,3.4813Zm-196.2864-4.5477a6.7054,6.7054,0,0,1-3.1351-.7746L63.7216,181.14a6.82,6.82,0,0,1-2.3878-10.0521l45.64-63.2112a6.8367,6.8367,0,0,1,11.0638-.0182L163.979,171.07a6.8349,6.8349,0,0,1-2.3877,10.0795L115.65,204.89A6.8776,6.8776,0,0,1,112.4969,205.6557Zm118.4025-3.5907a22.3873,22.3873,0,1,1,22.3918-22.3827A22.3815,22.3815,0,0,1,230.8994,202.065ZM112.5243,191.1288l35.7249-18.4639-35.7249-49.149L77.0364,172.674Zm118.3751-2.6155a8.8264,8.8264,0,1,0-8.8219-8.831A8.8426,8.8426,0,0,0,230.8994,188.5133ZM32.4168,177.6682a6.7929,6.7929,0,0,1-6.7805-6.79V143.7751a6.78,6.78,0,0,1,13.5609,0v27.1036A6.7929,6.7929,0,0,1,32.4168,177.6682Zm0-54.2161a6.793,6.793,0,0,1-6.7805-6.79v-12.23a26.6355,26.6355,0,0,1,7.1268-18.145A6.7775,6.7775,0,1,1,42.6967,95.51a13.1267,13.1267,0,0,0-3.4995,8.9222v12.23A6.793,6.793,0,0,1,32.4168,123.4521Zm219.2521-26.739a6.759,6.759,0,0,1-4.8483-1.8409,13.0582,13.0582,0,0,0-8.9677-3.5634H225.732a6.78,6.78,0,0,1,0-13.5609h12.1209a26.6971,26.6971,0,0,1,18.2544,7.2271,6.7972,6.7972,0,0,1-4.4384,11.7381ZM63.0472,91.3088a6.78,6.78,0,1,1,0-13.5609H90.16a6.78,6.78,0,1,1,0,13.5609Zm54.2343,0a6.78,6.78,0,1,1,0-13.5609h27.1126a6.78,6.78,0,1,1,0,13.5609Zm54.2252,0a6.78,6.78,0,0,1,0-13.5609h27.1127a6.78,6.78,0,0,1,0,13.5609ZM226.47,51.8656l-12.686-36.6L99.492,51.8656Z"/></svg>